<svg width="236" height="341" viewBox="0 0 236 341" fill="none" xmlns="http://www.w3.org/2000/svg">
<g filter="url(#filter0_d_198_2255)">
<path d="M68.0664 116.748V113.873L79.5664 108.809V112.117L71.6928 115.278L71.799 115.107V115.515L71.6928 115.343L79.5664 118.504V121.812L68.0664 116.748ZM91.9501 104.489L86.5594 124.516H83.5619L88.9525 104.489H91.9501ZM103.964 116.748L92.4644 121.812V118.504L100.338 115.343L100.232 115.515V115.107L100.338 115.278L92.4644 112.117V108.809L103.964 113.873V116.748Z" fill="url(#paint0_linear_198_2255)"/>
<g filter="url(#filter1_d_198_2255)">
<path d="M118 0L11 11.5553V213.458L118 279L225 213.458V11.5553L119.118 0.11625L118 0ZM210.998 205.263L118 262.225L25.0017 205.263V122.504L117.593 179.246L117.752 189.534L54.2246 150.602L54.1342 160.599L117.91 200.055L118.079 210.61L54.3149 171.55L54.2246 181.548L118 220.991L182.396 181.327V171.306L182.306 171.352V138.744L210.987 121.109V205.251L210.998 205.263ZM210.931 110.379L185.479 125.817L173.736 132.943L117.729 98.6381L117.627 108.612L165.504 137.919L165.086 138.186L164.047 138.814L157.25 142.941L117.729 118.726L117.627 128.712L148.826 147.812L141.464 152.88L141.295 152.997L117.718 138.698L117.627 148.672L133.097 158.053L117.345 167.784L25.2049 111.402L117.481 54.3004L210.931 110.379ZM210.998 100.335L117.503 43.5821H117.481L25.0017 100.277V24.5287L118 14.4848L211.01 24.5287V100.324L210.998 100.335Z" fill="url(#paint1_linear_198_2255)"/>
</g>
</g>
<g filter="url(#filter2_d_198_2255)">
<path d="M29.508 313.198C29.508 310.762 30.012 308.634 31.02 306.814C32.028 304.994 33.428 303.594 35.22 302.614C37.04 301.634 39.112 301.144 41.436 301.144C44.432 301.144 46.952 301.97 48.996 303.622C51.04 305.246 52.356 307.528 52.944 310.468H44.208C43.704 308.928 42.724 308.158 41.268 308.158C40.232 308.158 39.406 308.592 38.79 309.46C38.202 310.3 37.908 311.546 37.908 313.198C37.908 314.85 38.202 316.11 38.79 316.978C39.406 317.846 40.232 318.28 41.268 318.28C42.752 318.28 43.732 317.51 44.208 315.97H52.944C52.356 318.882 51.04 321.164 48.996 322.816C46.952 324.468 44.432 325.294 41.436 325.294C39.112 325.294 37.04 324.804 35.22 323.824C33.428 322.844 32.028 321.444 31.02 319.624C30.012 317.804 29.508 315.662 29.508 313.198ZM67.3257 325.294C64.9737 325.294 62.8597 324.804 60.9837 323.824C59.1357 322.844 57.6797 321.444 56.6157 319.624C55.5517 317.804 55.0197 315.662 55.0197 313.198C55.0197 310.762 55.5517 308.634 56.6157 306.814C57.7077 304.994 59.1777 303.594 61.0257 302.614C62.9017 301.634 65.0157 301.144 67.3677 301.144C69.7197 301.144 71.8197 301.634 73.6677 302.614C75.5437 303.594 77.0137 304.994 78.0777 306.814C79.1697 308.634 79.7157 310.762 79.7157 313.198C79.7157 315.634 79.1697 317.776 78.0777 319.624C77.0137 321.444 75.5437 322.844 73.6677 323.824C71.7917 324.804 69.6777 325.294 67.3257 325.294ZM67.3257 318.154C68.4737 318.154 69.4257 317.734 70.1817 316.894C70.9657 316.026 71.3577 314.794 71.3577 313.198C71.3577 311.602 70.9657 310.384 70.1817 309.544C69.4257 308.704 68.4877 308.284 67.3677 308.284C66.2477 308.284 65.3097 308.704 64.5537 309.544C63.7977 310.384 63.4197 311.602 63.4197 313.198C63.4197 314.822 63.7837 316.054 64.5117 316.894C65.2397 317.734 66.1777 318.154 67.3257 318.154ZM81.7209 313.198C81.7209 310.762 82.1549 308.634 83.0229 306.814C83.9189 304.994 85.1369 303.594 86.6769 302.614C88.2169 301.634 89.9249 301.144 91.8009 301.144C93.3129 301.144 94.6569 301.466 95.8329 302.11C97.0369 302.726 97.9749 303.58 98.6469 304.672V293.92H106.921V325H98.6469V321.724C98.0029 322.816 97.0929 323.684 95.9169 324.328C94.7409 324.972 93.3549 325.294 91.7589 325.294C89.8829 325.294 88.1749 324.804 86.6349 323.824C85.1229 322.844 83.9189 321.444 83.0229 319.624C82.1549 317.776 81.7209 315.634 81.7209 313.198ZM98.6889 313.198C98.6889 311.686 98.2689 310.496 97.4289 309.628C96.6169 308.76 95.6089 308.326 94.4049 308.326C93.1729 308.326 92.1509 308.76 91.3389 309.628C90.5269 310.468 90.1209 311.658 90.1209 313.198C90.1209 314.71 90.5269 315.914 91.3389 316.81C92.1509 317.678 93.1729 318.112 94.4049 318.112C95.6089 318.112 96.6169 317.678 97.4289 316.81C98.2689 315.942 98.6889 314.738 98.6889 313.198ZM134.124 312.946C134.124 313.59 134.082 314.234 133.998 314.878H118.416C118.5 316.166 118.85 317.132 119.466 317.776C120.11 318.392 120.922 318.7 121.902 318.7C123.274 318.7 124.254 318.084 124.842 316.852H133.62C133.256 318.476 132.542 319.932 131.478 321.22C130.442 322.48 129.126 323.474 127.53 324.202C125.934 324.93 124.17 325.294 122.238 325.294C119.914 325.294 117.842 324.804 116.022 323.824C114.23 322.844 112.816 321.444 111.78 319.624C110.772 317.804 110.268 315.662 110.268 313.198C110.268 310.734 110.772 308.606 111.78 306.814C112.788 304.994 114.188 303.594 115.98 302.614C117.8 301.634 119.886 301.144 122.238 301.144C124.562 301.144 126.62 301.62 128.412 302.572C130.204 303.524 131.604 304.896 132.612 306.688C133.62 308.452 134.124 310.538 134.124 312.946ZM125.724 310.888C125.724 309.88 125.388 309.096 124.716 308.536C124.044 307.948 123.204 307.654 122.196 307.654C121.188 307.654 120.362 307.934 119.718 308.494C119.074 309.026 118.654 309.824 118.458 310.888H125.724ZM168.279 301.228C171.247 301.228 173.571 302.124 175.251 303.916C176.959 305.708 177.813 308.158 177.813 311.266V325H169.581V312.358C169.581 311.098 169.231 310.118 168.531 309.418C167.831 308.718 166.879 308.368 165.675 308.368C164.471 308.368 163.519 308.718 162.819 309.418C162.119 310.118 161.769 311.098 161.769 312.358V325H153.537V312.358C153.537 311.098 153.187 310.118 152.487 309.418C151.815 308.718 150.877 308.368 149.673 308.368C148.441 308.368 147.475 308.718 146.775 309.418C146.075 310.118 145.725 311.098 145.725 312.358V325H137.493V301.438H145.725V304.546C146.453 303.538 147.391 302.74 148.539 302.152C149.715 301.536 151.059 301.228 152.571 301.228C154.307 301.228 155.847 301.606 157.191 302.362C158.563 303.118 159.641 304.182 160.425 305.554C161.265 304.266 162.371 303.23 163.743 302.446C165.115 301.634 166.627 301.228 168.279 301.228ZM207.691 301.438L192.739 336.214H183.793L189.421 323.992L179.761 301.438H188.917L193.873 314.794L198.661 301.438H207.691Z" fill="url(#paint2_linear_198_2255)"/>
</g>
<defs>
<filter id="filter0_d_198_2255" x="7" y="0" width="222" height="287" filterUnits="userSpaceOnUse" color-interpolation-filters="sRGB">
<feFlood flood-opacity="0" result="BackgroundImageFix"/>
<feColorMatrix in="SourceAlpha" type="matrix" values="0 0 0 0 0 0 0 0 0 0 0 0 0 0 0 0 0 0 127 0" result="hardAlpha"/>
<feOffset dy="4"/>
<feGaussianBlur stdDeviation="2"/>
<feComposite in2="hardAlpha" operator="out"/>
<feColorMatrix type="matrix" values="0 0 0 0 0 0 0 0 0 0 0 0 0 0 0 0 0 0 0.25 0"/>
<feBlend mode="normal" in2="BackgroundImageFix" result="effect1_dropShadow_198_2255"/>
<feBlend mode="normal" in="SourceGraphic" in2="effect1_dropShadow_198_2255" result="shape"/>
</filter>
<filter id="filter1_d_198_2255" x="7" y="0" width="222" height="287" filterUnits="userSpaceOnUse" color-interpolation-filters="sRGB">
<feFlood flood-opacity="0" result="BackgroundImageFix"/>
<feColorMatrix in="SourceAlpha" type="matrix" values="0 0 0 0 0 0 0 0 0 0 0 0 0 0 0 0 0 0 127 0" result="hardAlpha"/>
<feOffset dy="4"/>
<feGaussianBlur stdDeviation="2"/>
<feComposite in2="hardAlpha" operator="out"/>
<feColorMatrix type="matrix" values="0 0 0 0 0 0 0 0 0 0 0 0 0 0 0 0 0 0 0.25 0"/>
<feBlend mode="normal" in2="BackgroundImageFix" result="effect1_dropShadow_198_2255"/>
<feBlend mode="normal" in="SourceGraphic" in2="effect1_dropShadow_198_2255" result="shape"/>
</filter>
<filter id="filter2_d_198_2255" x="29.508" y="293.92" width="182.183" height="46.2939" filterUnits="userSpaceOnUse" color-interpolation-filters="sRGB">
<feFlood flood-opacity="0" result="BackgroundImageFix"/>
<feColorMatrix in="SourceAlpha" type="matrix" values="0 0 0 0 0 0 0 0 0 0 0 0 0 0 0 0 0 0 127 0" result="hardAlpha"/>
<feOffset dx="2" dy="2"/>
<feGaussianBlur stdDeviation="1"/>
<feComposite in2="hardAlpha" operator="out"/>
<feColorMatrix type="matrix" values="0 0 0 0 0.158654 0 0 0 0 0.145687 0 0 0 0 0.145687 0 0 0 0.4 0"/>
<feBlend mode="normal" in2="BackgroundImageFix" result="effect1_dropShadow_198_2255"/>
<feBlend mode="normal" in="SourceGraphic" in2="effect1_dropShadow_198_2255" result="shape"/>
</filter>
<linearGradient id="paint0_linear_198_2255" x1="86.755" y1="112.883" x2="86.8675" y2="125.006" gradientUnits="userSpaceOnUse">
<stop stop-color="#060D2B"/>
<stop offset="0.5" stop-color="#0E1B52"/>
<stop offset="1" stop-color="#172977"/>
</linearGradient>
<linearGradient id="paint1_linear_198_2255" x1="114.292" y1="125.34" x2="117.927" y2="279.002" gradientUnits="userSpaceOnUse">
<stop stop-color="#060D2B"/>
<stop offset="0.5" stop-color="#0E1B52"/>
<stop offset="1" stop-color="#172977"/>
</linearGradient>
<linearGradient id="paint2_linear_198_2255" x1="28.5" y1="310.5" x2="202.178" y2="310.5" gradientUnits="userSpaceOnUse">
<stop stop-color="#0A244C"/>
<stop offset="0.5" stop-color="#2A518C"/>
<stop offset="1" stop-color="#081D3C"/>
</linearGradient>
</defs>
</svg>
