<svg width="50" height="51" viewBox="0 0 50 51" fill="none" xmlns="http://www.w3.org/2000/svg">
<path d="M25 0.5C11.1895 0.5 0 11.6895 0 25.5C0 39.3105 11.1895 50.5 25 50.5C38.8105 50.5 50 39.3105 50 25.5C50 11.6895 38.8105 0.5 25 0.5ZM25 10.1774C29.8992 10.1774 33.871 14.1492 33.871 19.0484C33.871 23.9476 29.8992 27.9194 25 27.9194C20.1008 27.9194 16.129 23.9476 16.129 19.0484C16.129 14.1492 20.1008 10.1774 25 10.1774ZM25 44.8548C19.0827 44.8548 13.7802 42.1734 10.2319 37.9798C12.127 34.4113 15.8367 31.9516 20.1613 31.9516C20.4032 31.9516 20.6452 31.9919 20.877 32.0625C22.1875 32.4859 23.5585 32.7581 25 32.7581C26.4415 32.7581 27.8226 32.4859 29.123 32.0625C29.3548 31.9919 29.5968 31.9516 29.8387 31.9516C34.1633 31.9516 37.873 34.4113 39.7681 37.9798C36.2198 42.1734 30.9173 44.8548 25 44.8548Z" fill="#31004C"/>
</svg>
