<svg width="1548" height="814" viewBox="0 0 1548 814" fill="none" xmlns="http://www.w3.org/2000/svg">
<mask id="mask0_202_979" style="mask-type:alpha" maskUnits="userSpaceOnUse" x="0" y="0" width="1548" height="814">
<path d="M1548 814H0V0H1548V814Z" fill="#26003B"/>
</mask>
<g mask="url(#mask0_202_979)">
<path d="M1548 814H13.8745V0H1548V814Z" fill="#26003B"/>
<g filter="url(#filter0_if_202_979)">
<path fill-rule="evenodd" clip-rule="evenodd" d="M190.875 1032.88L232.535 990.794C273.902 950.191 356.329 866.708 467.878 819.923C578.533 773.824 716.816 764.316 804.648 687.992C891.88 610.871 928.953 465.452 1011.98 382.764C1094.41 299.281 1223.68 277.841 1301.9 188.789C1381.02 99.0508 1407.59 -58.4081 1420.73 -136.396L1434.76 -215.072L1388.29 -179.35C1342.72 -144.315 1250.69 -73.5583 1157.76 -2.11464C1065.72 68.6419 973.685 139.399 881.648 210.155C789.612 280.912 696.682 352.355 604.646 423.112C512.609 493.869 420.573 564.625 328.537 635.382C235.607 706.826 143.57 777.582 97.9989 812.617L51.5339 848.339L190.875 1032.88Z" fill="#31004C"/>
</g>
<g filter="url(#filter1_f_202_979)">
<path fill-rule="evenodd" clip-rule="evenodd" d="M-57.7977 1140.66L23.028 1147.7C103.854 1154.75 264.317 1167.7 342.781 1102.8C420.057 1036.76 254.108 879.819 305.239 788.956C356.371 698.093 622.207 671.052 663.832 571.161C705.456 471.27 734.101 342.492 811.377 276.456C889.842 211.548 1018.13 210.512 1133.43 180.588C1247.55 149.536 1298.68 58.6732 1323.65 12.6774L1396.37 -101.544L1018.25 -347.044L983.771 -310.077C949.292 -273.109 880.335 -199.173 811.377 -125.238C742.42 -51.3026 673.463 22.6328 604.505 96.5682C535.548 170.504 466.59 244.439 397.633 318.375C328.676 392.31 259.718 466.246 190.761 540.181C121.804 614.116 52.8462 688.052 -16.1112 761.987C-85.0686 835.923 -154.026 909.858 -188.505 946.826L-222.983 983.794L-57.7977 1140.66Z" fill="#410065"/>
<path fill-rule="evenodd" clip-rule="evenodd" d="M-57.7977 1140.66L23.028 1147.7C103.854 1154.75 264.317 1167.7 342.781 1102.8C420.057 1036.76 254.108 879.819 305.239 788.956C356.371 698.093 622.207 671.052 663.832 571.161C705.456 471.27 734.101 342.492 811.377 276.456C889.842 211.548 1018.13 210.512 1133.43 180.588C1247.55 149.536 1298.68 58.6732 1323.65 12.6774L1396.37 -101.544L1018.25 -347.044L983.771 -310.077C949.292 -273.109 880.335 -199.173 811.377 -125.238C742.42 -51.3026 673.463 22.6328 604.505 96.5682C535.548 170.504 466.59 244.439 397.633 318.375C328.676 392.31 259.718 466.246 190.761 540.181C121.804 614.116 52.8462 688.052 -16.1112 761.987C-85.0686 835.923 -154.026 909.858 -188.505 946.826L-222.983 983.794L-57.7977 1140.66Z" stroke="black"/>
</g>
<g filter="url(#filter2_f_202_979)">
<path fill-rule="evenodd" clip-rule="evenodd" d="M-343.306 990.721L-229.066 1024.77C-113.791 1059.78 115.725 1128.84 196.174 1059.48C277.658 991.095 210.747 783.56 251.858 677.685C294.005 572.77 443.812 567.817 505.627 481.165C566.408 393.552 539.197 224.239 629.998 164.499C721.47 104.024 930.282 153.858 1031.43 103.73C1132.59 53.6023 1124.01 -98.4095 1120.24 -173.935L1116.47 -249.46L938.416 -414.782L902.85 -375.781C867.284 -336.78 796.152 -258.778 725.02 -180.776C653.887 -102.775 582.755 -24.773 510.952 53.9646C439.82 131.966 368.687 209.968 297.555 287.97C226.423 365.971 155.291 443.973 84.1583 521.975C13.0261 599.977 -58.7772 678.714 -129.909 756.716C-201.042 834.718 -272.174 912.719 -307.74 951.72L-343.306 990.721Z" fill="url(#paint0_linear_202_979)"/>
<path fill-rule="evenodd" clip-rule="evenodd" d="M-343.306 990.721L-229.066 1024.77C-113.791 1059.78 115.725 1128.84 196.174 1059.48C277.658 991.095 210.747 783.56 251.858 677.685C294.005 572.77 443.812 567.817 505.627 481.165C566.408 393.552 539.197 224.239 629.998 164.499C721.47 104.024 930.282 153.858 1031.43 103.73C1132.59 53.6023 1124.01 -98.4095 1120.24 -173.935L1116.47 -249.46L938.416 -414.782L902.85 -375.781C867.284 -336.78 796.152 -258.778 725.02 -180.776C653.887 -102.775 582.755 -24.773 510.952 53.9646C439.82 131.966 368.687 209.968 297.555 287.97C226.423 365.971 155.291 443.973 84.1583 521.975C13.0261 599.977 -58.7772 678.714 -129.909 756.716C-201.042 834.718 -272.174 912.719 -307.74 951.72L-343.306 990.721Z" stroke="black"/>
</g>
<g filter="url(#filter3_f_202_979)">
<path fill-rule="evenodd" clip-rule="evenodd" d="M46.5032 1338.35L69.7149 1287.85C92.9265 1237.36 139.35 1136.37 140.004 995.54C140.658 854.711 95.5424 674.041 141.966 573.053C188.389 472.065 326.351 450.758 395.659 369.691C464.966 288.623 465.62 147.794 534.928 66.726C604.236 -14.3418 742.198 -35.6482 811.179 -46.3014L880.16 -56.9547L605.544 -296L570.89 -255.466C536.236 -214.932 466.928 -133.864 397.621 -52.7966C328.313 28.2712 259.005 109.339 189.697 190.407C120.389 271.474 51.081 352.542 -18.2269 433.61C-87.5348 514.678 -156.843 595.746 -226.151 676.813C-295.458 757.881 -364.766 838.949 -399.42 879.483L-434.074 920.017L46.5032 1338.35Z" fill="url(#paint1_linear_202_979)"/>
<path fill-rule="evenodd" clip-rule="evenodd" d="M46.5032 1338.35L69.7149 1287.85C92.9265 1237.36 139.35 1136.37 140.004 995.54C140.658 854.711 95.5424 674.041 141.966 573.053C188.389 472.065 326.351 450.758 395.659 369.691C464.966 288.623 465.62 147.794 534.928 66.726C604.236 -14.3418 742.198 -35.6482 811.179 -46.3014L880.16 -56.9547L605.544 -296L570.89 -255.466C536.236 -214.932 466.928 -133.864 397.621 -52.7966C328.313 28.2712 259.005 109.339 189.697 190.407C120.389 271.474 51.081 352.542 -18.2269 433.61C-87.5348 514.678 -156.843 595.746 -226.151 676.813C-295.458 757.881 -364.766 838.949 -399.42 879.483L-434.074 920.017L46.5032 1338.35Z" stroke="black"/>
</g>
<g filter="url(#filter4_df_202_979)">
<path fill-rule="evenodd" clip-rule="evenodd" d="M-596.604 664.503L-456.266 722.784C-314.548 782.344 -32.4921 900.185 51.0474 833.704C135.965 768.502 23.0381 518.242 54.1913 403.12C86.7231 289.278 262.628 308.557 321.353 219.035C378.699 128.234 318.866 -71.3701 416.191 -125.051C514.188 -179.469 768.672 -87.2278 879.783 -128.109C990.894 -168.99 955.875 -345.553 939.055 -433.195L922.235 -520.837L685.118 -741L649.552 -701.999C613.986 -662.998 542.854 -584.996 471.721 -506.995C400.589 -428.993 329.457 -350.991 257.654 -272.254C186.521 -194.252 115.389 -116.25 44.2569 -38.2485C-26.8754 39.7532 -98.0076 117.755 -169.14 195.757C-240.272 273.758 -312.075 352.496 -383.208 430.498C-454.34 508.499 -525.472 586.501 -561.038 625.502L-596.604 664.503Z" fill="#52007E"/>
<path fill-rule="evenodd" clip-rule="evenodd" d="M-596.604 664.503L-456.266 722.784C-314.548 782.344 -32.4921 900.185 51.0474 833.704C135.965 768.502 23.0381 518.242 54.1913 403.12C86.7231 289.278 262.628 308.557 321.353 219.035C378.699 128.234 318.866 -71.3701 416.191 -125.051C514.188 -179.469 768.672 -87.2278 879.783 -128.109C990.894 -168.99 955.875 -345.553 939.055 -433.195L922.235 -520.837L685.118 -741L649.552 -701.999C613.986 -662.998 542.854 -584.996 471.721 -506.995C400.589 -428.993 329.457 -350.991 257.654 -272.254C186.521 -194.252 115.389 -116.25 44.2569 -38.2485C-26.8754 39.7532 -98.0076 117.755 -169.14 195.757C-240.272 273.758 -312.075 352.496 -383.208 430.498C-454.34 508.499 -525.472 586.501 -561.038 625.502L-596.604 664.503Z" stroke="black"/>
</g>
</g>
<defs>
<filter id="filter0_if_202_979" x="47.5339" y="-219.071" width="1391.23" height="1255.95" filterUnits="userSpaceOnUse" color-interpolation-filters="sRGB">
<feFlood flood-opacity="0" result="BackgroundImageFix"/>
<feBlend mode="normal" in="SourceGraphic" in2="BackgroundImageFix" result="shape"/>
<feColorMatrix in="SourceAlpha" type="matrix" values="0 0 0 0 0 0 0 0 0 0 0 0 0 0 0 0 0 0 127 0" result="hardAlpha"/>
<feOffset dy="4"/>
<feGaussianBlur stdDeviation="2"/>
<feComposite in2="hardAlpha" operator="arithmetic" k2="-1" k3="1"/>
<feColorMatrix type="matrix" values="0 0 0 0 0 0 0 0 0 0 0 0 0 0 0 0 0 0 0.25 0"/>
<feBlend mode="normal" in2="shape" result="effect1_innerShadow_202_979"/>
<feGaussianBlur stdDeviation="2" result="effect2_foregroundBlur_202_979"/>
</filter>
<filter id="filter1_f_202_979" x="-226.983" y="-351.044" width="1627.35" height="1508.75" filterUnits="userSpaceOnUse" color-interpolation-filters="sRGB">
<feFlood flood-opacity="0" result="BackgroundImageFix"/>
<feBlend mode="normal" in="SourceGraphic" in2="BackgroundImageFix" result="shape"/>
<feGaussianBlur stdDeviation="2" result="effect1_foregroundBlur_202_979"/>
</filter>
<filter id="filter2_f_202_979" x="-347.306" y="-418.782" width="1473.52" height="1512" filterUnits="userSpaceOnUse" color-interpolation-filters="sRGB">
<feFlood flood-opacity="0" result="BackgroundImageFix"/>
<feBlend mode="normal" in="SourceGraphic" in2="BackgroundImageFix" result="shape"/>
<feGaussianBlur stdDeviation="2" result="effect1_foregroundBlur_202_979"/>
</filter>
<filter id="filter3_f_202_979" x="-438.074" y="-300" width="1322.23" height="1642.35" filterUnits="userSpaceOnUse" color-interpolation-filters="sRGB">
<feFlood flood-opacity="0" result="BackgroundImageFix"/>
<feBlend mode="normal" in="SourceGraphic" in2="BackgroundImageFix" result="shape"/>
<feGaussianBlur stdDeviation="2" result="effect1_foregroundBlur_202_979"/>
</filter>
<filter id="filter4_df_202_979" x="-611.004" y="-751.4" width="1583.25" height="1623.25" filterUnits="userSpaceOnUse" color-interpolation-filters="sRGB">
<feFlood flood-opacity="0" result="BackgroundImageFix"/>
<feColorMatrix in="SourceAlpha" type="matrix" values="0 0 0 0 0 0 0 0 0 0 0 0 0 0 0 0 0 0 127 0" result="hardAlpha"/>
<feOffset dy="4"/>
<feGaussianBlur stdDeviation="7.2"/>
<feComposite in2="hardAlpha" operator="out"/>
<feColorMatrix type="matrix" values="0 0 0 0 0 0 0 0 0 0 0 0 0 0 0 0 0 0 0.25 0"/>
<feBlend mode="normal" in2="BackgroundImageFix" result="effect1_dropShadow_202_979"/>
<feBlend mode="normal" in="SourceGraphic" in2="effect1_dropShadow_202_979" result="shape"/>
<feGaussianBlur stdDeviation="2" result="effect2_foregroundBlur_202_979"/>
</filter>
<linearGradient id="paint0_linear_202_979" x1="-313.238" y1="-311.316" x2="451.355" y2="1262.58" gradientUnits="userSpaceOnUse">
<stop offset="0.525046" stop-color="#52007E"/>
<stop offset="1" stop-color="#9400E4"/>
</linearGradient>
<linearGradient id="paint1_linear_202_979" x1="932.071" y1="-69.5" x2="77.3057" y2="-292.215" gradientUnits="userSpaceOnUse">
<stop stop-color="#6D00A8"/>
<stop offset="1" stop-color="#570086"/>
</linearGradient>
</defs>
</svg>
