<svg width="174" height="46" viewBox="0 0 174 46" fill="none" xmlns="http://www.w3.org/2000/svg">
<g filter="url(#filter0_d_196_2461)">
<path d="M11.936 32.42C9.724 32.42 7.736 31.916 5.972 30.908C4.236 29.9 2.864 28.528 1.856 26.792C0.848 25.028 0.344 23.026 0.344 20.786C0.344 18.546 0.848 16.558 1.856 14.822C2.864 13.058 4.236 11.672 5.972 10.664C7.736 9.656 9.724 9.152 11.936 9.152C13.952 9.152 15.8 9.474 17.48 10.118C19.188 10.762 20.546 11.686 21.554 12.89L17.312 17.93C17.004 17.538 16.612 17.188 16.136 16.88C15.66 16.544 15.128 16.292 14.54 16.124C13.98 15.928 13.35 15.83 12.65 15.83C11.726 15.83 10.914 16.04 10.214 16.46C9.514 16.88 8.968 17.468 8.576 18.224C8.212 18.952 8.03 19.792 8.03 20.744C8.03 21.696 8.212 22.536 8.576 23.264C8.94 23.992 9.472 24.58 10.172 25.028C10.9 25.476 11.726 25.7 12.65 25.7C13.35 25.7 13.98 25.616 14.54 25.448C15.128 25.28 15.646 25.042 16.094 24.734C16.57 24.426 16.976 24.062 17.312 23.642L21.554 28.724C20.518 29.9 19.146 30.81 17.438 31.454C15.758 32.098 13.924 32.42 11.936 32.42ZM35.8258 32.42C33.4458 32.42 31.3178 31.916 29.4418 30.908C27.5658 29.9 26.0958 28.528 25.0318 26.792C23.9678 25.056 23.4358 23.054 23.4358 20.786C23.4358 18.518 23.9678 16.516 25.0318 14.78C26.0958 13.044 27.5658 11.672 29.4418 10.664C31.3178 9.656 33.4458 9.152 35.8258 9.152C38.2058 9.152 40.3198 9.656 42.1678 10.664C44.0438 11.672 45.5138 13.044 46.5778 14.78C47.6418 16.516 48.1738 18.518 48.1738 20.786C48.1738 23.054 47.6418 25.056 46.5778 26.792C45.5138 28.528 44.0438 29.9 42.1678 30.908C40.3198 31.916 38.2058 32.42 35.8258 32.42ZM35.8258 25.826C36.6658 25.826 37.4218 25.616 38.0938 25.196C38.7938 24.748 39.3258 24.146 39.6898 23.39C40.0818 22.606 40.2778 21.738 40.2778 20.786C40.2778 19.778 40.0818 18.896 39.6898 18.14C39.3258 17.384 38.7938 16.796 38.0938 16.376C37.4218 15.928 36.6658 15.704 35.8258 15.704C34.9578 15.704 34.1878 15.928 33.5158 16.376C32.8438 16.796 32.3118 17.398 31.9198 18.182C31.5278 18.938 31.3318 19.806 31.3318 20.786C31.3318 21.738 31.5278 22.606 31.9198 23.39C32.3118 24.146 32.8438 24.748 33.5158 25.196C34.1878 25.616 34.9578 25.826 35.8258 25.826ZM60.5782 32.462C58.7022 32.462 57.0222 31.972 55.5382 30.992C54.0822 29.984 52.9342 28.612 52.0942 26.876C51.2542 25.112 50.8342 23.096 50.8342 20.828C50.8342 18.56 51.2542 16.558 52.0942 14.822C52.9622 13.058 54.1382 11.672 55.6222 10.664C57.1062 9.656 58.8002 9.152 60.7042 9.152C61.6842 9.152 62.6222 9.292 63.5182 9.572C64.4142 9.852 65.2122 10.244 65.9122 10.748C66.6402 11.252 67.2422 11.84 67.7182 12.512C68.2222 13.184 68.5442 13.898 68.6842 14.654L66.8782 15.158V0.92H74.7322V32H67.6342L67.0882 27.002L68.6422 27.296C68.5302 28.024 68.2362 28.696 67.7602 29.312C67.2842 29.928 66.6822 30.474 65.9542 30.95C65.2542 31.426 64.4282 31.79 63.4762 32.042C62.5522 32.322 61.5862 32.462 60.5782 32.462ZM62.8042 26.078C63.7002 26.078 64.4702 25.868 65.1142 25.448C65.7582 25 66.2482 24.398 66.5842 23.642C66.9202 22.858 67.0882 21.92 67.0882 20.828C67.0882 19.736 66.9202 18.798 66.5842 18.014C66.2482 17.202 65.7582 16.6 65.1142 16.208C64.4702 15.788 63.7002 15.578 62.8042 15.578C61.9082 15.578 61.1382 15.788 60.4942 16.208C59.8502 16.6 59.3602 17.202 59.0242 18.014C58.6882 18.798 58.5202 19.736 58.5202 20.828C58.5202 21.92 58.6882 22.858 59.0242 23.642C59.3602 24.398 59.8502 25 60.4942 25.448C61.1382 25.868 61.9082 26.078 62.8042 26.078ZM91.0738 32.42C88.5258 32.42 86.3278 31.93 84.4798 30.95C82.6318 29.942 81.2038 28.57 80.1958 26.834C79.1878 25.07 78.6838 23.068 78.6838 20.828C78.6838 19.148 78.9638 17.594 79.5238 16.166C80.0838 14.738 80.8678 13.506 81.8758 12.47C82.8838 11.406 84.0738 10.594 85.4458 10.034C86.8458 9.446 88.3718 9.152 90.0238 9.152C91.6478 9.152 93.1178 9.432 94.4338 9.992C95.7778 10.552 96.9258 11.35 97.8778 12.386C98.8578 13.422 99.5998 14.64 100.104 16.04C100.636 17.44 100.874 18.98 100.818 20.66L100.776 22.424H83.1358L82.1698 18.518H94.5178L93.7618 19.358V18.56C93.7618 17.944 93.5938 17.412 93.2578 16.964C92.9498 16.488 92.5298 16.124 91.9978 15.872C91.4658 15.62 90.8638 15.494 90.1918 15.494C89.2398 15.494 88.4418 15.69 87.7978 16.082C87.1818 16.446 86.7058 16.978 86.3698 17.678C86.0338 18.378 85.8658 19.218 85.8658 20.198C85.8658 21.318 86.0898 22.284 86.5378 23.096C87.0138 23.908 87.6998 24.538 88.5958 24.986C89.5198 25.434 90.6398 25.658 91.9558 25.658C92.8238 25.658 93.5798 25.546 94.2238 25.322C94.8958 25.098 95.6098 24.706 96.3658 24.146L99.9778 29.228C98.9978 30.012 98.0038 30.642 96.9958 31.118C96.0158 31.566 95.0358 31.888 94.0558 32.084C93.0758 32.308 92.0818 32.42 91.0738 32.42ZM104.889 32V9.614H112.197L112.491 13.31L111.525 13.142C111.917 12.414 112.379 11.798 112.911 11.294C113.443 10.79 114.031 10.384 114.675 10.076C115.319 9.74 115.977 9.502 116.649 9.362C117.321 9.222 117.965 9.152 118.581 9.152C119.617 9.152 120.569 9.306 121.437 9.614C122.333 9.894 123.117 10.384 123.789 11.084C124.489 11.784 125.063 12.764 125.511 14.024L124.293 13.94L124.629 13.352C125.049 12.624 125.539 12.008 126.099 11.504C126.687 11 127.331 10.566 128.031 10.202C128.731 9.838 129.445 9.572 130.173 9.404C130.929 9.236 131.643 9.152 132.315 9.152C134.135 9.152 135.661 9.502 136.893 10.202C138.125 10.902 139.049 11.938 139.665 13.31C140.281 14.654 140.589 16.306 140.589 18.266V32H132.777V18.896C132.777 18.168 132.665 17.566 132.441 17.09C132.217 16.586 131.895 16.208 131.475 15.956C131.055 15.704 130.537 15.578 129.921 15.578C129.445 15.578 128.997 15.662 128.577 15.83C128.185 15.97 127.849 16.194 127.569 16.502C127.289 16.782 127.065 17.104 126.897 17.468C126.729 17.804 126.645 18.21 126.645 18.686V32H118.833V18.854C118.833 18.154 118.721 17.566 118.497 17.09C118.273 16.614 117.951 16.25 117.531 15.998C117.111 15.718 116.593 15.578 115.977 15.578C115.501 15.578 115.053 15.662 114.633 15.83C114.241 15.97 113.905 16.18 113.625 16.46C113.345 16.74 113.121 17.062 112.953 17.426C112.785 17.79 112.701 18.196 112.701 18.644V32H104.889ZM148.341 41.66L153.717 28.976L153.801 32.42L143.175 9.614H151.911L155.649 18.518C155.957 19.218 156.223 19.918 156.447 20.618C156.699 21.29 156.881 21.934 156.993 22.55L156.111 23.222C156.223 22.858 156.391 22.354 156.615 21.71C156.839 21.066 157.091 20.324 157.371 19.484L160.773 9.614H169.551L159.849 32L155.943 41.66H148.341Z" fill="url(#paint0_linear_196_2461)"/>
</g>
<defs>
<filter id="filter0_d_196_2461" x="0.343994" y="0.919922" width="173.207" height="44.7402" filterUnits="userSpaceOnUse" color-interpolation-filters="sRGB">
<feFlood flood-opacity="0" result="BackgroundImageFix"/>
<feColorMatrix in="SourceAlpha" type="matrix" values="0 0 0 0 0 0 0 0 0 0 0 0 0 0 0 0 0 0 127 0" result="hardAlpha"/>
<feOffset dx="2" dy="2"/>
<feGaussianBlur stdDeviation="1"/>
<feComposite in2="hardAlpha" operator="out"/>
<feColorMatrix type="matrix" values="0 0 0 0 0.158654 0 0 0 0 0.145687 0 0 0 0 0.145687 0 0 0 0.4 0"/>
<feBlend mode="normal" in2="BackgroundImageFix" result="effect1_dropShadow_196_2461"/>
<feBlend mode="normal" in="SourceGraphic" in2="effect1_dropShadow_196_2461" result="shape"/>
</filter>
<linearGradient id="paint0_linear_196_2461" x1="-1" y1="16.5" x2="164.916" y2="16.5" gradientUnits="userSpaceOnUse">
<stop stop-color="#0A244C"/>
<stop offset="0.5" stop-color="#2A518C"/>
<stop offset="1" stop-color="#081D3C"/>
</linearGradient>
</defs>
</svg>
